<?xml version="1.0" standalone="no"?>
<!DOCTYPE svg PUBLIC "-//W3C//DTD SVG 20010904//EN"
 "http://www.w3.org/TR/2001/REC-SVG-20010904/DTD/svg10.dtd">
<svg version="1.0" xmlns="http://www.w3.org/2000/svg"
 width="800.000000pt" height="800.000000pt" viewBox="0 0 800.000000 800.000000"
 preserveAspectRatio="xMidYMid meet">
<metadata>
Created by potrace 1.14, written by Peter Selinger 2001-2017
</metadata>
<g transform="translate(0.000000,800.000000) scale(0.100000,-0.100000)"
fill="#000000" stroke="none">
<path d="M0 4000 l0 -4000 843 0 844 0 2 66 c1 36 6 100 12 142 5 42 14 122
20 177 5 55 14 121 19 148 9 42 120 350 264 732 85 223 211 615 262 810 31
120 52 232 64 335 15 131 41 263 91 461 11 46 72 89 334 238 232 133 238 137
225 162 -6 10 -10 29 -10 43 0 17 -4 24 -14 20 -17 -6 -24 12 -32 79 -6 52 -6
53 57 138 55 74 195 217 204 207 10 -11 65 -227 65 -256 0 -33 1 -34 14 -17
13 19 15 17 22 -20 6 -33 8 -36 15 -20 5 13 8 2 8 -36 1 -43 -6 -68 -28 -110
-15 -30 -46 -99 -67 -153 -33 -84 -48 -109 -97 -159 -55 -55 -107 -141 -107
-178 0 -9 18 -22 48 -32 47 -17 50 -16 158 8 19 4 111 117 169 208 31 48 46
35 95 -79 46 -109 55 -123 71 -107 5 5 1 24 -11 46 -31 57 -20 157 23 205 8 9
18 28 22 42 11 36 35 60 61 60 36 0 37 14 7 87 -21 52 -28 84 -28 138 0 39 4
80 8 91 6 17 3 23 -13 27 -25 6 -40 46 -39 100 l1 42 11 -37 c16 -50 81 -104
195 -163 100 -52 132 -82 132 -125 0 -25 4 -28 47 -34 44 -6 83 -28 83 -48 0
-14 90 -192 107 -210 28 -31 28 -31 35 70 l3 44 37 -6 c43 -7 71 14 66 48 -2
16 -14 24 -52 33 -49 12 -103 51 -89 64 5 4 29 10 55 14 54 8 52 9 126 -132
23 -45 43 -73 53 -73 9 0 22 -7 29 -15 7 -8 18 -15 24 -15 7 0 21 -8 32 -17
92 -84 156 -131 239 -179 54 -30 100 -53 102 -50 3 3 -27 26 -66 52 -39 26
-71 51 -71 55 0 5 -7 9 -15 9 -8 0 -25 15 -37 34 -13 18 -48 67 -79 108 -31
41 -69 94 -84 119 -16 24 -59 76 -98 116 l-69 72 29 28 c17 15 51 47 76 70 62
56 80 101 71 178 -3 33 -13 72 -20 87 -18 34 -17 38 1 38 8 0 32 -17 53 -37
30 -29 46 -60 72 -133 26 -74 41 -103 71 -131 22 -20 39 -44 39 -54 0 -30 70
-83 198 -151 68 -36 189 -108 268 -160 125 -82 150 -103 181 -151 88 -137 107
-217 133 -553 7 -91 21 -173 42 -250 76 -284 320 -1009 370 -1100 106 -192
106 -193 128 -312 11 -64 32 -149 45 -189 14 -40 25 -80 25 -90 0 -9 4 -19 9
-21 5 -1 23 -44 40 -95 17 -50 38 -108 46 -127 9 -21 11 -36 5 -36 -5 0 -10 6
-10 14 0 8 -13 24 -29 35 -31 22 -46 27 -36 12 5 -9 -1 -16 -42 -51 -39 -33
-82 -13 -185 87 -16 14 -28 34 -28 44 0 10 -4 21 -10 24 -5 3 -10 14 -10 24 0
29 40 44 199 77 40 8 8 28 -47 28 -37 1 -56 7 -81 29 -18 15 -40 27 -49 28 -9
0 -37 10 -62 22 -44 22 -52 38 -37 77 3 8 8 27 11 42 4 16 12 28 19 28 26 -1
137 65 135 80 -2 9 -28 22 -63 33 -145 43 -167 52 -193 77 -16 15 -34 42 -42
61 -7 19 -23 45 -36 59 -29 33 -180 324 -209 403 -12 34 -32 85 -45 112 -20
46 -26 87 -18 140 5 31 -28 30 -40 -2 -30 -75 -64 -331 -87 -648 -3 -44 -10
-111 -15 -150 -5 -38 -9 -105 -10 -147 0 -43 -2 -78 -5 -78 -3 0 -14 9 -25 20
-11 11 -24 20 -29 20 -5 0 -26 -21 -47 -47 -44 -55 -42 -54 -149 -111 -44 -24
-95 -58 -113 -75 -31 -30 -35 -31 -110 -29 -96 4 -149 17 -162 42 -12 23 -13
74 -1 120 5 19 12 46 15 60 3 15 29 42 65 70 88 65 94 99 18 101 -62 1 -79 11
-92 55 l-11 39 -8 -60 c-4 -33 -12 -78 -18 -100 -13 -46 -12 -154 3 -238 13
-77 4 -354 -12 -374 -11 -13 -14 -13 -26 3 -7 10 -13 12 -13 5 0 -18 -72 -3
-90 20 -12 14 -23 17 -51 13 -27 -5 -54 2 -110 25 -40 17 -82 31 -92 31 -31 0
-93 38 -224 136 -71 53 -149 107 -174 120 -47 23 -129 106 -129 130 0 7 -5 14
-12 16 -32 11 7 117 44 118 12 0 19 11 23 38 14 85 19 98 50 139 18 23 35 40
39 36 3 -3 6 1 6 10 0 9 4 19 10 22 5 3 7 0 4 -8 -3 -8 2 -14 11 -14 8 0 15 2
15 3 0 8 -50 56 -50 48 0 -5 -6 0 -12 11 -6 11 -13 58 -14 105 -1 47 -3 85 -4
85 -1 0 -3 26 -5 58 -2 31 1 57 7 57 5 0 6 6 1 13 -4 6 -8 14 -8 17 -5 40 -18
80 -26 80 -6 0 -15 13 -20 30 -6 16 -15 27 -20 24 -5 -3 -9 0 -9 7 0 7 -11 27
-25 45 -14 18 -25 36 -25 39 0 4 -6 12 -13 20 -6 7 -41 45 -76 84 -35 39 -67
71 -72 71 -10 0 -109 -163 -109 -179 0 -7 -4 -10 -9 -6 -13 7 -41 -34 -41 -61
0 -14 -8 -24 -21 -27 -12 -3 -18 -3 -15 0 3 4 1 12 -5 20 -16 18 -59 17 -59
-2 0 -30 -18 -14 -35 31 -15 38 -16 64 -10 172 6 116 4 135 -19 222 -47 179
-75 250 -115 289 l-36 36 0 -75 0 -75 -43 -14 c-42 -13 -44 -15 -38 -45 12
-60 19 -144 13 -168 -5 -17 -20 -30 -48 -41 l-42 -16 7 -43 c20 -115 20 -108
-11 -137 -29 -26 -30 -32 -35 -132 -3 -57 -12 -120 -20 -140 -9 -19 -23 -66
-33 -105 -9 -38 -28 -91 -40 -119 -13 -27 -33 -75 -45 -105 -12 -30 -28 -68
-35 -85 -7 -16 -28 -64 -46 -105 -40 -91 -108 -197 -154 -238 -61 -56 -118
-78 -240 -92 -38 -4 -83 -11 -98 -14 -22 -5 -27 -4 -21 6 4 7 -7 0 -24 -16
-42 -39 -48 -70 -21 -107 12 -17 23 -28 26 -26 2 3 35 -1 72 -9 38 -7 94 -13
125 -14 80 -1 86 -2 86 -12 0 -5 4 -7 9 -4 13 9 1 -36 -16 -55 -8 -9 -13 -20
-12 -25 4 -25 -4 -36 -34 -48 -38 -16 -146 -20 -148 -6 -1 6 -2 14 -3 19 0 6
-18 33 -39 60 -29 38 -49 53 -78 61 -22 6 -55 20 -74 31 -29 17 -40 19 -65 10
-17 -5 -38 -17 -46 -26 -14 -14 -14 -18 -1 -39 9 -13 28 -26 44 -29 35 -7 113
-79 113 -105 0 -29 -45 -58 -133 -86 -18 -6 -23 -41 -7 -51 6 -3 7 -17 4 -31
l-6 -24 3121 0 3121 0 0 4000 0 4000 -4000 0 -4000 0 0 -4000z m4153 1938 c53
-6 95 -13 92 -16 -11 -11 -198 -21 -216 -11 -13 6 -19 6 -19 0 0 -6 -34 -10
-82 -10 -91 0 -171 -14 -206 -37 -13 -8 -42 -18 -65 -22 -36 -6 -42 -12 -47
-37 -4 -17 -12 -41 -20 -54 l-13 -24 -11 28 c-7 16 -15 25 -18 20 -11 -20 -27
-143 -32 -251 -5 -110 -11 -144 -26 -144 -4 0 -9 69 -12 153 -2 83 -8 159 -13
167 -13 21 -32 -72 -40 -198 -7 -92 -6 -102 9 -96 13 5 16 -2 16 -41 0 -56
-14 -85 -40 -85 -23 0 -23 -2 -9 38 8 22 8 46 0 80 -6 30 -7 62 -1 87 10 42
-2 109 -21 121 -8 4 -9 -21 -5 -84 3 -50 2 -93 -2 -96 -12 -7 -13 -138 -1
-152 13 -16 -2 -45 -37 -73 -26 -20 -88 -89 -149 -165 -16 -21 -42 -44 -56
-51 -19 -10 -30 -29 -42 -74 -11 -40 -24 -64 -38 -72 -21 -11 -22 -10 -17 35
3 26 12 55 21 64 10 12 16 50 20 127 2 61 1 101 -3 90 -51 -136 -78 -223 -90
-292 l-8 -48 -1 43 c-2 76 49 352 79 431 32 83 112 205 196 302 31 35 63 75
72 89 28 44 66 81 105 101 20 11 43 29 50 41 22 37 151 88 287 114 133 24 199
25 393 2z m-350 -84 c4 -4 28 -8 54 -9 27 -1 59 -3 73 -4 l25 -3 -25 -7 c-17
-5 -24 -13 -22 -25 2 -10 -3 -27 -10 -39 -15 -24 -13 -57 4 -57 6 0 8 11 6 25
-4 20 -1 25 14 25 17 0 19 -4 13 -27 -10 -41 -25 -56 -42 -42 -16 14 -18 12
-28 -20 -5 -16 -4 -21 4 -17 6 4 11 2 11 -3 0 -6 -8 -11 -17 -12 -13 0 -14 -2
-4 -6 10 -4 11 -7 1 -13 -8 -5 -10 -15 -5 -26 7 -18 8 -18 15 1 5 11 9 14 9 8
1 -7 10 -13 21 -13 11 0 20 -4 20 -8 0 -12 -158 -13 -166 -1 -3 6 -10 43 -14
82 l-7 72 -1 -75 c0 -41 3 -84 7 -95 10 -24 3 -45 -14 -45 -9 0 -15 20 -19 63
-11 127 -13 213 -7 231 10 26 88 56 104 40z m212 -14 c3 -5 -1 -10 -10 -10 -9
0 -13 5 -10 10 3 6 8 10 10 10 2 0 7 -4 10 -10z m45 -26 c0 -8 -4 -14 -10 -14
-5 0 -10 9 -10 21 0 11 5 17 10 14 6 -3 10 -13 10 -21z m-110 -19 c0 -7 -7
-16 -16 -19 -14 -5 -15 -4 -5 8 7 8 9 21 5 27 -4 8 -3 9 4 5 7 -4 12 -13 12
-21z m41 11 c-7 -8 -16 -27 -21 -43 -8 -24 -8 -23 -5 12 2 22 4 41 4 43 1 1 8
2 17 2 13 0 14 -3 5 -14z m61 -48 c-8 -8 -9 -4 -5 13 4 13 8 18 11 10 2 -7 -1
-18 -6 -23z m-22 -60 c-1 -29 -3 -38 -9 -28 -5 8 -7 26 -6 40 4 30 4 30 10 30
3 0 5 -19 5 -42z m77 20 c-3 -8 -6 -5 -6 6 -1 11 2 17 5 13 3 -3 4 -12 1 -19z
m-142 2 c-3 -5 -10 -10 -16 -10 -5 0 -9 5 -9 10 0 6 7 10 16 10 8 0 12 -4 9
-10z m105 0 c0 -5 -4 -10 -10 -10 -5 0 -10 5 -10 10 0 6 5 10 10 10 6 0 10 -4
10 -10z m-132 -61 c-18 -12 -23 8 -6 28 12 15 13 15 16 -2 2 -10 -2 -21 -10
-26z m102 -19 c0 -5 -5 -10 -11 -10 -5 0 -7 5 -4 10 3 6 8 10 11 10 2 0 4 -4
4 -10z m-110 -9 c0 -12 -39 -21 -45 -11 -3 5 5 11 17 13 13 2 24 5 26 6 1 0 2
-3 2 -8z m33 -11 c-3 -11 -10 -23 -16 -27 -7 -4 -8 0 -4 11 4 10 7 22 7 27 0
5 4 9 9 9 5 0 7 -9 4 -20z m255 -97 c-15 -2 -42 -2 -60 0 -18 2 -6 4 27 4 33
0 48 -2 33 -4z m97 -3 c3 -6 -4 -10 -17 -10 -18 0 -20 2 -8 10 19 12 18 12 25
0z m68 -264 c136 -49 217 -127 251 -243 30 -107 48 -273 42 -388 -11 -185 -21
-279 -30 -294 -5 -8 -24 -56 -41 -107 -36 -103 -100 -202 -170 -261 -50 -41
-52 -52 -60 -242 -2 -57 -8 -108 -14 -114 -6 -6 -11 -18 -11 -27 0 -22 -106
-123 -165 -155 -27 -16 -60 -41 -73 -57 -13 -15 -29 -28 -36 -28 -49 0 -91
283 -51 344 19 29 17 28 154 52 77 14 99 22 128 47 33 29 80 114 69 125 -3 2
-27 -10 -53 -27 -88 -58 -131 -73 -202 -73 -95 -1 -142 23 -221 112 -36 40
-77 91 -92 114 -15 22 -43 54 -63 71 -25 22 -38 44 -46 80 -11 46 -36 104 -76
180 -53 98 -72 305 -28 305 7 0 20 11 29 25 9 14 29 28 44 31 15 4 33 11 40
17 17 13 141 12 155 -2 15 -15 13 -197 -3 -258 -14 -53 -14 -53 15 -83 50 -52
81 -62 145 -49 30 6 64 15 75 19 11 5 34 12 50 15 17 3 41 14 55 25 20 15 22
21 13 31 -10 10 -20 9 -48 -4 -59 -28 -94 -22 -145 24 l-45 40 17 30 c11 18
15 40 12 58 -4 16 -1 32 5 35 6 4 11 39 11 84 0 86 -18 136 -67 193 -17 19
-37 48 -46 65 -19 37 -97 78 -169 88 l-48 7 30 38 c17 20 40 57 53 81 19 38
29 47 67 58 85 24 215 40 345 41 113 0 139 -3 198 -23z m-832 -158 c-22 -37
-82 -96 -121 -121 -26 -17 -50 -82 -119 -327 -16 -58 -41 -136 -56 -175 -27
-71 -41 -181 -52 -395 -8 -160 -23 -129 -25 50 l-1 165 -10 -185 c-12 -215
-27 -203 -25 20 0 74 0 178 -2 230 -2 80 -4 89 -11 55 -4 -22 -8 -67 -8 -101
-1 -98 -11 -153 -27 -147 -10 4 -14 -4 -15 -23 l-1 -29 -8 29 c-13 43 -24 313
-16 379 6 48 16 69 59 125 28 37 76 95 108 130 32 35 79 95 105 135 50 74 183
212 219 227 28 11 30 -4 6 -42z m170 -261 c-8 -8 -17 -8 -27 -2 -22 14 -19 29
8 36 26 6 37 -16 19 -34z m-68 -14 c3 -27 4 -49 2 -51 -2 -2 -13 6 -24 17 -17
17 -19 25 -10 51 15 43 26 37 32 -17z m137 -3 c0 -5 -5 -10 -11 -10 -5 0 -7 5
-4 10 3 6 8 10 11 10 2 0 4 -4 4 -10z m64 -33 c-3 -9 -10 -17 -15 -17 -11 0
-12 34 -2 44 11 11 24 -9 17 -27z m-887 -54 c-3 -10 -5 -4 -5 12 0 17 2 24 5
18 2 -7 2 -21 0 -30z m383 -1391 c-16 -104 -23 -132 -30 -132 -12 0 -4 153 10
199 14 42 14 43 21 17 4 -14 3 -52 -1 -84z m-133 -1858 c-3 -3 -12 -4 -19 -1
-8 3 -5 6 6 6 11 1 17 -2 13 -5z m2004 -570 c5 -15 8 -29 5 -31 -2 -2 -8 10
-14 26 -13 38 -5 41 9 5z m29 -77 c0 -5 -4 -5 -10 -2 -5 3 -10 14 -10 23 0 15
2 15 10 2 5 -8 10 -19 10 -23z m-86 -213 c4 -9 9 -56 13 -104 l6 -88 -34 -7
c-19 -4 -40 -12 -46 -17 -17 -13 -6 -30 15 -24 68 18 74 18 67 -4 -11 -34
-138 -156 -171 -164 -16 -4 -42 -14 -59 -21 -106 -48 -197 -59 -350 -40 -64 7
-75 15 -78 50 -2 31 3 33 142 76 49 15 88 48 97 83 4 19 21 28 97 51 51 16 99
30 108 31 43 9 93 31 99 44 4 8 13 27 20 42 7 14 25 40 41 57 19 22 23 31 13
31 -8 0 -12 5 -9 10 9 15 22 12 29 -6z m-1407 -410 c-9 -9 -28 6 -21 18 4 6
10 6 17 -1 6 -6 8 -13 4 -17z m-1723 -13 c-2 -3 -13 -5 -23 -6 -13 -1 -17 4
-14 16 4 15 8 16 24 6 10 -6 16 -13 13 -16z"/>
<path d="M3288 5553 c-6 -27 3 -64 13 -57 12 7 12 74 0 74 -5 0 -11 -8 -13
-17z"/>
<path d="M3221 5491 c-12 -16 -21 -36 -21 -45 0 -9 -7 -16 -15 -16 -8 0 -15
-7 -15 -15 0 -8 -13 -39 -30 -68 -16 -28 -32 -72 -35 -97 l-5 -45 15 35 c35
79 34 78 34 37 1 -26 5 -37 14 -35 14 5 24 45 26 100 1 41 19 88 34 88 5 0 7
-20 5 -45 -1 -24 1 -40 5 -36 10 10 23 171 14 171 -3 0 -15 -13 -26 -29z"/>
<path d="M3161 5083 c0 -6 -4 -20 -7 -30 -5 -14 -4 -15 5 -7 7 7 11 20 8 30
-3 11 -5 14 -6 7z"/>
<path d="M3838 5818 c-10 -6 -10 -8 0 -8 6 0 12 -4 12 -9 0 -4 -11 -6 -25 -3
-15 2 -25 0 -25 -7 0 -12 1 -12 45 -15 25 -1 30 3 33 25 3 27 -14 34 -40 17z"/>
<path d="M3758 5793 c6 -2 18 -2 25 0 6 3 1 5 -13 5 -14 0 -19 -2 -12 -5z"/>
<path d="M3845 5742 c-20 -3 -53 -58 -41 -69 3 -4 6 -1 6 5 0 7 8 12 18 12 10
0 25 11 32 25 15 28 13 32 -15 27z"/>
<path d="M4306 5050 c-58 -19 -116 -62 -116 -87 0 -16 25 -11 131 28 64 23 86
26 139 22 51 -5 62 -3 58 8 -5 16 -90 47 -128 48 -14 0 -51 -9 -84 -19z"/>
<path d="M4283 4963 c-13 -2 -38 -18 -58 -36 -32 -28 -35 -35 -35 -87 0 -51 3
-58 25 -68 28 -13 108 -15 167 -6 34 6 39 11 48 46 6 21 8 48 5 58 -8 25 0 25
36 -1 38 -27 37 -45 -6 -70 -19 -12 -35 -22 -35 -24 0 -11 96 7 111 21 27 25
24 40 -18 83 -31 32 -53 43 -113 59 -41 10 -82 21 -90 24 -8 3 -25 3 -37 1z
m47 -93 c0 -25 -27 -37 -43 -21 -9 10 -8 16 7 27 27 19 36 18 36 -6z m60 -50
c0 -5 -4 -10 -10 -10 -5 0 -10 5 -10 10 0 6 5 10 10 10 6 0 10 -4 10 -10z
m-124 -38 c-9 -8 -26 10 -26 26 1 15 2 15 15 -2 8 -11 13 -21 11 -24z"/>
<path d="M3949 4247 c-35 -4 -86 -5 -112 -3 -61 6 -70 -11 -31 -57 16 -18 36
-44 45 -57 16 -24 21 -25 123 -25 91 1 108 4 119 19 9 12 25 18 43 17 16 -1
37 -2 46 -2 19 0 148 81 148 93 0 4 -28 7 -62 7 -35 -1 -106 3 -159 8 -52 4
-124 5 -160 0z"/>
<path d="M4840 360 c-8 -5 -11 -12 -7 -16 4 -4 13 -2 19 4 15 15 7 24 -12 12z"/>
<path d="M3170 3571 c0 -25 -11 -73 -25 -107 -21 -51 -23 -68 -14 -91 6 -15
11 -44 11 -63 0 -43 -39 -140 -57 -140 -16 0 -26 -24 -31 -77 -3 -35 0 -43 16
-48 11 -4 20 -13 20 -21 0 -8 4 -14 9 -14 15 0 41 30 41 46 0 8 7 17 15 20 10
4 15 20 15 46 0 33 -3 39 -16 34 -13 -5 -15 -2 -9 11 4 10 11 70 14 133 3 63
12 125 19 137 21 38 26 135 8 158 -15 19 -15 18 -16 -24z"/>
<path d="M3197 3349 c-12 -25 -17 -55 -15 -91 l3 -53 23 50 c28 61 38 105 24
105 -6 0 -12 6 -14 14 -2 8 -11 -3 -21 -25z"/>
<path d="M3877 3323 c-3 -5 -5 -56 -4 -111 2 -90 4 -102 20 -102 11 0 33 -25
58 -65 23 -36 44 -65 46 -65 12 0 -9 66 -56 176 -28 64 -48 120 -46 124 3 5 1
18 -3 31 -5 12 -12 18 -15 12z"/>
<path d="M3599 2833 c-13 -16 -12 -17 4 -4 16 13 21 21 13 21 -2 0 -10 -8 -17
-17z"/>
<path d="M4394 2186 c-9 -22 -1 -48 18 -60 22 -13 35 -1 19 18 -7 8 -11 22 -9
32 4 22 -20 31 -28 10z"/>
<path d="M4012 1398 c3 -7 13 -16 23 -22 11 -6 45 -28 77 -48 31 -21 68 -38
82 -38 13 0 31 -7 40 -15 20 -20 82 -46 90 -38 3 4 6 -3 6 -13 0 -23 29 -67
30 -45 0 7 17 -6 38 -29 l38 -43 29 25 c37 32 29 49 -34 72 -45 16 -51 21 -51
46 0 40 -11 90 -20 90 -5 0 -13 -14 -19 -31 l-11 -31 -27 19 c-25 17 -59 33
-188 88 -44 19 -107 27 -103 13z"/>
<path d="M4526 1279 c-2 -8 -7 -59 -10 -113 -6 -86 -5 -97 8 -87 14 12 47 19
93 20 25 1 46 32 37 54 -3 8 -16 19 -29 25 -14 6 -31 26 -38 44 -18 43 -55 77
-61 57z"/>
<path d="M4341 1118 c0 -15 -6 -47 -12 -71 -12 -44 -4 -167 10 -151 21 25 32
97 22 147 -6 29 -13 63 -15 77 -3 24 -3 24 -5 -2z"/>
<path d="M3805 1009 c-32 -7 -25 -12 14 -9 17 1 21 -2 16 -12 -6 -10 -5 -11 6
0 19 18 0 30 -36 21z"/>
<path d="M4315 729 c-10 -19 -25 -40 -34 -46 -15 -12 -14 -14 2 -27 11 -8 21
-34 25 -63 9 -64 25 -61 34 6 3 29 13 60 22 69 14 14 17 14 35 -2 18 -17 20
-16 40 5 12 13 21 31 21 41 0 17 -5 18 -46 12 -42 -6 -49 -4 -64 16 l-18 23
-17 -34z"/>
<path d="M3974 649 c-5 -9 19 -17 65 -21 21 -2 36 2 38 10 5 13 5 13 -55 16
-24 1 -45 -1 -48 -5z"/>
<path d="M4186 644 c-5 -13 -4 -14 7 -6 8 7 18 8 22 4 5 -4 5 -1 1 6 -10 17
-23 15 -30 -4z"/>
<path d="M4327 343 c-4 -3 -7 -17 -7 -30 0 -14 -5 -33 -11 -45 -14 -26 -3 -36
22 -20 17 11 25 9 50 -9 25 -17 35 -19 53 -11 35 16 39 49 10 69 -23 15 -28
15 -60 0 -33 -16 -34 -16 -34 6 0 26 -14 50 -23 40z"/>
</g>
</svg>
